<svg width="48" height="48" viewBox="0 0 48 48" fill="none" xmlns="http://www.w3.org/2000/svg">
<path d="M19.2083 1.95837V4.83337C19.2083 5.59587 19.5112 6.32714 20.0504 6.86631C20.5896 7.40547 21.3208 7.70837 22.0833 7.70837H25.9167C26.2942 7.70837 26.6681 7.63401 27.0169 7.48953C27.3657 7.34504 27.6826 7.13327 27.9496 6.86631C28.2166 6.59934 28.4283 6.2824 28.5728 5.93359C28.7173 5.58478 28.7917 5.21092 28.7917 4.83337V1.95837M20.1667 40.2917H27.8333M9.625 2.43754C9.625 2.43754 10.5833 15.3597 10.5833 24C10.5833 32.6404 9.625 45.5625 9.625 45.5625V46.0417H38.375V45.5625C38.375 45.5625 37.4167 32.6404 37.4167 24C37.4167 15.3597 38.375 2.43754 38.375 2.43754V1.95837H9.625V2.43754Z" stroke="#010141" stroke-width="2"/>
<path d="M33.5 46L26.8605 34.5L30.9019 27.5L27.1491 21L30 18.1492" stroke="#010141" stroke-width="2"/>
</svg>
