<svg width="20" height="20" viewBox="0 0 20 20" fill="none" xmlns="http://www.w3.org/2000/svg">
<g clip-path="url(#clip0_2580_936)">
<path d="M1.10345 9.60074L9.88818 1.61463C9.88818 1.61463 13.8812 0.816016 18.6729 1.21532C19.0722 6.00699 18.2736 10 18.2736 10L10.2875 18.7848C10.2875 18.7848 7.2871 17.8392 4.66766 15.2206C2.04821 12.6011 1.10345 9.60074 1.10345 9.60074Z" stroke="#010141" stroke-width="1.5"/>
<path d="M13.8812 4.80912C13.8812 5.12683 14.0074 5.43152 14.2321 5.65618C14.4567 5.88083 14.7614 6.00704 15.0791 6.00704C15.3968 6.00704 15.7015 5.88083 15.9262 5.65618C16.1509 5.43152 16.2771 5.12683 16.2771 4.80912C16.2771 4.49142 16.1509 4.18672 15.9262 3.96207C15.7015 3.73741 15.3968 3.61121 15.0791 3.61121C14.7614 3.61121 14.4567 3.73741 14.2321 3.96207C14.0074 4.18672 13.8812 4.49142 13.8812 4.80912Z" stroke="#010141" stroke-width="1.5"/>
</g>
<defs>
<clipPath id="clip0_2580_936">
<rect width="20" height="20" fill="white"/>
</clipPath>
</defs>
</svg>
