<svg width="20" height="20" viewBox="0 0 20 20" fill="none" xmlns="http://www.w3.org/2000/svg">
<g clip-path="url(#clip0_2580_954)">
<path d="M19.5833 5.6077C19.3206 5.6077 19.0571 5.6636 18.835 5.80336C17.5868 6.59238 17.5868 7.66811 17.5868 8.40284V8.80214H13.9931M7.60418 11.198H19.5833M13.5938 11.198V19.5834M10 19.1841C9.2014 19.1841 8.60244 17.9862 8.60244 17.9862C8.00348 16.7883 8.00348 15.9896 8.00348 14.7917V13.5938H1.61459V13.3942L3.14952 7.40856C3.2816 6.89338 3.58135 6.43678 4.00153 6.11073C4.42171 5.78467 4.93844 5.6077 5.47029 5.6077H6.40626L7.56185 7.91888C7.69453 8.18439 7.89856 8.40768 8.15106 8.56369C8.40357 8.71971 8.69455 8.80228 8.99136 8.80214H12.3958M6.28647 4.01047C6.28647 4.01047 5.00869 3.21186 5.00869 2.2136C5.00869 1.84336 5.15577 1.48829 5.41756 1.2265C5.67936 0.964702 6.03443 0.817627 6.40466 0.817627C6.7749 0.817627 7.12997 0.964702 7.39176 1.2265C7.65356 1.48829 7.80064 1.84336 7.80064 2.2136C7.80064 3.21186 6.52605 4.01047 6.52605 4.01047H6.28647Z" stroke="#010141" stroke-width="1.5"/>
</g>
<defs>
<clipPath id="clip0_2580_954">
<rect width="20" height="20" fill="white"/>
</clipPath>
</defs>
</svg>
