<svg width="48" height="48" viewBox="0 0 48 48" fill="none" xmlns="http://www.w3.org/2000/svg">
<path d="M19.2083 22.0833V20.1666C19.2083 18.8958 19.7132 17.677 20.6118 16.7784C21.5104 15.8798 22.7292 15.375 24 15.375C25.2708 15.375 26.4896 15.8798 27.3882 16.7784C28.2868 17.677 28.7917 18.8958 28.7917 20.1666V20.2414C28.7919 20.8162 28.6628 21.3838 28.414 21.902C28.1651 22.4203 27.8029 22.8759 27.3542 23.2352L25.4375 24.7647C24.9887 25.124 24.6265 25.5796 24.3777 26.0979C24.1289 26.6161 23.9998 27.1837 24 27.7585V30.7083M24 33.5833V37.4166M11.5417 9.62495V42.2083M36.4583 42.2083V9.62495H32.5733H46.0417V10.1041L45.9363 10.6983C44.1595 20.7661 44.1595 31.0672 45.9363 41.135L46.0417 41.7291V42.2083H1.95834V41.7291L2.06376 41.135C3.84061 31.0672 3.84061 20.766 2.06376 10.6983L1.95834 10.1041V9.62495H15.4268M15.4268 9.62495C15.6611 7.51529 16.6651 5.5661 18.2467 4.15043C19.8283 2.73476 21.8764 1.95203 23.9991 1.95203C26.1217 1.95203 28.1698 2.73476 29.7514 4.15043C31.333 5.5661 32.337 7.51529 32.5713 9.62495H15.4268Z" stroke="#010141" stroke-width="2"/>
</svg>
