<svg width="48" height="48" viewBox="0 0 48 48" fill="none" xmlns="http://www.w3.org/2000/svg">
<path fill-rule="evenodd" clip-rule="evenodd" d="M21.432 2.90996C15.3045 3.14627 8.41685 4.25421 3.66 5.7687L2.88 6.01705V24.006V41.9949L3.564 42.2112C7.48709 43.4523 12.9416 44.4591 18 44.8761C20.3367 45.0687 21.0504 45.0947 24 45.0947C26.9497 45.0947 27.6633 45.0687 30 44.8761C35.0584 44.4591 40.5129 43.4523 44.436 42.2112L45.12 41.9949V24.006V6.01705L44.34 5.7687C40.6204 4.58445 35.1713 3.56709 30.288 3.14521C28.2018 2.96497 27.1055 2.91971 24.504 2.90661C23.052 2.89931 21.6696 2.9008 21.432 2.90996ZM21.456 4.92433C18.1799 5.068 15.0451 5.38993 12.1278 5.88232C9.71914 6.28888 6.93317 6.90323 5.14801 7.42158L4.896 7.49473V23.9996V40.5045L5.052 40.5538C6.07344 40.8764 8.64437 41.4764 10.5261 41.8312C13.6417 42.4187 16.2628 42.7487 19.752 42.9929C21.4731 43.1133 26.5269 43.1133 28.248 42.9929C31.7372 42.7487 34.3583 42.4187 37.4739 41.8312C39.3556 41.4764 41.9266 40.8764 42.948 40.5538L43.104 40.5045V23.9996V7.49473L42.852 7.42158C41.565 7.0479 39.3748 6.5344 37.728 6.22019C34.4484 5.59456 31.8184 5.25707 28.32 5.01309C27.3173 4.94315 22.4593 4.88032 21.456 4.92433ZM22.992 20.6399V31.6799H24H25.008V20.6399V9.59992H24H22.992V20.6399ZM22.992 36.4559V38.3999H24H25.008V36.4559V34.5119H24H22.992V36.4559Z" fill="#010141"/>
</svg>
