<svg width="48" height="48" viewBox="0 0 48 48" fill="none" xmlns="http://www.w3.org/2000/svg">
<path fill-rule="evenodd" clip-rule="evenodd" d="M21.432 2.91011C15.2537 3.15011 8.44404 4.24676 3.56397 5.78756L2.87997 6.00356V23.9993V41.9951L3.56397 42.2114C7.48706 43.4524 12.9416 44.4593 18 44.8763C20.3367 45.0688 21.0503 45.0949 24 45.0949C26.9496 45.0949 27.6633 45.0688 30 44.8763C35.0584 44.4593 40.5129 43.4524 44.436 42.2114L45.12 41.9951V24.0001V6.00515L44.436 5.78881C40.0633 4.40555 34.1058 3.37201 28.344 2.99718C27.2601 2.92667 22.5376 2.86719 21.432 2.91011ZM21.456 4.92452C18.1798 5.06819 15.045 5.39012 12.1278 5.88251C9.71911 6.28907 6.93314 6.90342 5.14797 7.42177L4.89597 7.49492V24.0001V40.5053L5.14797 40.5785C8.58933 41.5781 13.506 42.459 17.76 42.8379C20.1026 43.0466 20.8967 43.0771 24 43.0771C27.1032 43.0771 27.8974 43.0466 30.24 42.8379C34.4939 42.459 39.4106 41.5781 42.852 40.5785L43.104 40.5053V24.0001V7.49492L42.852 7.42177C41.565 7.04809 39.3748 6.53459 37.728 6.22038C34.4484 5.59475 31.8184 5.25726 28.32 5.01327C27.3173 4.94334 22.4592 4.88051 21.456 4.92452ZM22.92 9.65271C22.0518 9.80406 21.7602 9.86991 21.3127 10.0156C19.0871 10.7403 17.2297 12.3584 16.1972 14.4721C15.3195 16.269 15.091 18.4551 15.5827 20.3499C15.6924 20.7726 15.932 21.5041 15.9607 21.5041C15.982 21.5041 17.7831 20.7746 17.7996 20.7593C17.8082 20.7513 17.7504 20.5423 17.6711 20.2947C17.4286 19.5377 17.3571 19.0668 17.3592 18.2401C17.3607 17.6681 17.3848 17.3851 17.4635 17.0161C17.754 15.6551 18.2729 14.6434 19.1629 13.703C20.2427 12.562 21.5622 11.8844 23.1379 11.6616C23.6593 11.5879 24.8579 11.6281 25.344 11.7357C26.6727 12.0296 27.8649 12.6903 28.7715 13.6348C29.993 14.9074 30.634 16.4635 30.6388 18.1681C30.6416 19.169 30.463 19.9767 30.0439 20.859C29.6502 21.6878 29.4473 21.9151 26.1255 25.2502L22.992 28.3964V30.0382V31.6801H24H25.008V30.4457V29.2114L27.8802 26.3297C31.1047 23.0948 31.3039 22.8635 31.8815 21.6831C32.9593 19.4802 32.9188 16.689 31.7761 14.4284C30.4557 11.8159 28.1501 10.14 25.2365 9.67475C24.7265 9.59334 23.3364 9.58009 22.92 9.65271ZM22.992 36.4561V38.4001H24H25.008V36.4561V34.5121H24H22.992V36.4561Z" fill="#010141"/>
</svg>
