<svg width="20" height="20" viewBox="0 0 20 20" fill="none" xmlns="http://www.w3.org/2000/svg">
<path d="M10.7986 13.5938C11.5836 14.9024 12.6958 15.9841 14.0258 16.7323L15.191 17.3872V17.5868H4.80904V17.3872L5.97421 16.7323C7.30422 15.9841 8.41645 14.9024 9.2014 13.5938M1.61459 11.1979H18.3854M11.875 2.41321H1.61459V13.5938H18.3854V10" stroke="#010141" stroke-width="1.5"/>
<path d="M15.4138 0.833374V1.33251C15.4138 1.46488 15.4664 1.59184 15.56 1.68545C15.6536 1.77905 15.7805 1.83164 15.9129 1.83164H16.5784C16.644 1.83164 16.7089 1.81873 16.7694 1.79364C16.83 1.76856 16.885 1.73179 16.9314 1.68545C16.9777 1.6391 17.0145 1.58407 17.0396 1.52352C17.0646 1.46296 17.0775 1.39805 17.0775 1.33251V0.833374M15.5802 7.48847H16.9112M13.75 0.916563C13.75 0.916563 13.9164 3.15999 13.9164 4.66005C13.9164 6.16011 13.75 8.40354 13.75 8.40354V8.48673H18.7413V8.40354C18.7413 8.40354 18.5749 6.16011 18.5749 4.66005C18.5749 3.15999 18.7413 0.916563 18.7413 0.916563V0.833374H13.75V0.916563Z" stroke="#010141" stroke-width="1.5"/>
</svg>
