<svg width="20" height="20" viewBox="0 0 20 20" fill="none" xmlns="http://www.w3.org/2000/svg">
<path d="M3.61106 10.0001H5.20828M14.7916 10.0001H16.3888M0.815918 13.5938V16.389H1.21522C2.01014 16.2625 2.80924 16.164 3.61106 16.0935M0.815918 13.5938H1.21522C1.85064 13.5938 2.46003 13.8463 2.90933 14.2956C3.35864 14.7449 3.61106 15.3543 3.61106 15.9897V16.0935M0.815918 13.5938V6.40635M3.61106 16.0935C5.73546 15.9023 7.86699 15.8011 9.99995 15.79C11.7042 15.79 14.2174 15.8915 16.3888 16.0935M0.815918 6.40635V3.61121H1.21522C2.01014 3.73763 2.80924 3.83619 3.61106 3.90669M0.815918 6.40635H1.21522C1.85064 6.40635 2.46003 6.15393 2.90933 5.70462C3.35864 5.25532 3.61106 4.64593 3.61106 4.01051V3.90669M16.3888 16.0935C17.1907 16.1639 17.9898 16.2625 18.7847 16.389H19.184V13.5938M16.3888 16.0935V15.9897C16.3888 15.3543 16.6413 14.7449 17.0906 14.2956C17.5399 13.8463 18.1493 13.5938 18.7847 13.5938H19.184M19.184 13.5938V6.40635M19.184 6.40635V3.61121H18.7847C17.9898 3.73773 17.1907 3.83629 16.3888 3.90669M19.184 6.40635H18.7847C18.1493 6.40635 17.5399 6.15393 17.0906 5.70462C16.6413 5.25532 16.3888 4.64593 16.3888 4.01051V3.90669M16.3888 3.90669C14.2644 4.09788 12.1329 4.19913 9.99995 4.21016C7.86699 4.19913 5.73546 4.09788 3.61106 3.90669M9.99995 11.9966C9.47043 11.9966 8.96261 11.7863 8.58819 11.4119C8.21377 11.0374 8.00342 10.5296 8.00342 10.0001C8.00342 9.47058 8.21377 8.96276 8.58819 8.58834C8.96261 8.21392 9.47043 8.00357 9.99995 8.00357C10.5295 8.00357 11.0373 8.21392 11.4117 8.58834C11.7861 8.96276 11.9965 9.47058 11.9965 10.0001C11.9965 10.5296 11.7861 11.0374 11.4117 11.4119C11.0373 11.7863 10.5295 11.9966 9.99995 11.9966Z" stroke="#010141" stroke-width="1.5"/>
</svg>
