<svg width="48" height="48" viewBox="0 0 48 48" fill="none" xmlns="http://www.w3.org/2000/svg">
<path d="M40.2913 13.5319C40.9355 13.5319 41.7448 13.616 42.5403 13.7272L43.3245 13.8454L44.0901 13.9674L46.8275 43.2086H45.4681L45.3753 43.1911L45.3743 43.1901C45.3743 43.1901 45.3715 43.1895 45.3694 43.1891C45.3652 43.1883 45.3586 43.1878 45.3499 43.1862C45.3316 43.1828 45.303 43.1774 45.2659 43.1706C45.1917 43.1569 45.0801 43.1367 44.9339 43.111C44.6411 43.0594 44.2085 42.9851 43.6526 42.8961C42.5404 42.7182 40.9353 42.4807 38.973 42.2428C35.0459 41.7668 29.6978 41.2917 24.0003 41.2917C18.3025 41.2917 12.9538 41.7668 9.02667 42.2428C7.06431 42.4807 5.45923 42.7182 4.34698 42.8961C3.79113 42.9851 3.35844 43.0594 3.06573 43.111C2.91938 43.1368 2.80792 43.1569 2.7337 43.1706C2.69668 43.1774 2.66896 43.1828 2.6507 43.1862C2.64155 43.1879 2.63452 43.1883 2.63019 43.1891C2.62805 43.1895 2.62531 43.1901 2.62531 43.1901L2.62433 43.1911L2.53156 43.2086H1.06281L3.91339 13.9665L4.67511 13.8454C5.69759 13.682 6.84951 13.5319 7.70831 13.5319V15.5319C7.19473 15.5319 6.49713 15.6021 5.75226 15.7057L3.28253 41.0465C3.50056 41.0099 3.75071 40.9665 4.03156 40.9215C5.1653 40.7401 6.79495 40.4988 8.78546 40.2575C12.7645 39.7752 18.1981 39.2917 24.0003 39.2917C29.8024 39.2917 35.2352 39.7752 39.2142 40.2575C41.2046 40.4987 42.8343 40.7401 43.9681 40.9215C44.2057 40.9596 44.4217 40.9968 44.6146 41.029L42.2435 15.7047C41.5002 15.6014 40.8039 15.5319 40.2913 15.5319V13.5319ZM37.4583 4.79163V21.069L38.8597 34.5836H37.3616L37.306 34.5768C33.5603 34.16 28.9095 33.6247 24.0003 33.6247C19.0909 33.6247 14.4394 34.16 10.6937 34.5768L10.639 34.5836H9.14093L10.5413 21.0778V4.79163H37.4583ZM11.3675 32.4909C14.9492 32.0928 19.3567 31.6247 24.0003 31.6247C28.6432 31.6247 33.0497 32.0929 36.6312 32.4909L35.556 22.1247H12.4437L11.3675 32.4909ZM25.9163 27.7917V29.7917H22.0833V27.7917H25.9163ZM12.5413 20.1247H35.4583V6.79163H12.5413V20.1247Z" fill="#010141"/>
</svg>
