<svg width="48" height="48" viewBox="0 0 48 48" fill="none" xmlns="http://www.w3.org/2000/svg">
<g clip-path="url(#clip0_2512_62)">
<path fill-rule="evenodd" clip-rule="evenodd" d="M31.9396 0.967076C30 1.0504 27.9173 1.59448 26.136 2.4832C23.7203 3.68844 21.5751 5.70669 20.1532 8.11197C19.1717 9.77229 18.5373 11.7061 18.2792 13.824C18.198 14.4902 18.1985 16.3504 18.28 16.9908C18.3614 17.6308 18.5344 18.5067 18.7067 19.152L18.8414 19.656L9.89356 26.3694L0.94574 33.0828L0.974828 34.0014C1.04025 36.0694 1.50187 37.8805 2.42625 39.696C4.05355 42.8921 6.912 45.3174 10.344 46.414C11.5373 46.7954 12.6575 46.9827 13.9986 47.0251L14.9171 47.0542L21.6358 38.0963C25.3309 33.1694 28.3642 29.1482 28.3763 29.1603C28.4255 29.2095 29.7736 29.5314 30.288 29.6168C32.8432 30.0409 35.5642 29.7356 38.0542 28.7455C40.5051 27.771 42.7341 26.0149 44.347 23.7876C46.0967 21.3715 47.0381 18.4283 47.0396 15.3701C47.0402 14.0868 46.9442 13.2637 46.6495 12.024C46.5033 11.4091 45.775 9.18813 45.6898 9.09741C45.6624 9.06828 44.3459 10.3482 42.179 12.5108C40.0719 14.6136 38.587 16.0582 38.3934 16.1938C37.9844 16.48 37.1809 16.8624 36.72 16.9902C35.3479 17.3707 33.7596 17.3062 31.8883 16.794L31.3525 16.6474L31.2061 16.1117C30.8726 14.8918 30.7417 13.8763 30.7825 12.8259C30.8318 11.5577 31.1554 10.5439 31.8121 9.59997C31.9431 9.41167 33.4012 7.9132 35.4892 5.82093C37.5935 3.71234 38.9309 2.33762 38.9026 2.31232C38.83 2.24752 36.9485 1.60116 36.3651 1.44064C34.9448 1.04988 33.532 0.898676 31.9396 0.967076ZM31.968 2.98221C28.8782 3.13792 25.9146 4.48092 23.7579 6.7026C21.7445 8.77677 20.6062 11.2037 20.2809 14.1161C20.0743 15.9649 20.3002 17.728 20.9965 19.7021C21.1173 20.0443 21.216 20.3413 21.216 20.3621C21.216 20.3828 17.1096 23.4797 12.0907 27.2439L2.96548 34.0881L2.99784 34.456C3.19579 36.7083 3.95985 38.7194 5.29867 40.512C5.73643 41.0981 6.90187 42.2635 7.488 42.7013C9.2806 44.0401 11.2917 44.8042 13.544 45.0021L13.9119 45.0345L20.7561 35.9093C24.5203 30.8903 27.6164 26.7841 27.6361 26.7843C27.6558 26.7844 28.0176 26.9048 28.44 27.0519C29.2992 27.351 30.0903 27.5522 30.912 27.6805C31.6771 27.7999 33.5417 27.8 34.296 27.6807C37.1439 27.2299 39.3206 26.1609 41.2974 24.242C43.3667 22.2332 44.6317 19.6247 44.9762 16.656C45.0837 15.7293 45.031 14.226 44.8568 13.248C44.8168 13.0236 44.7841 12.8299 44.784 12.8176C44.784 12.8053 43.785 13.79 42.564 15.0058C41.343 16.2216 40.2072 17.3284 40.0401 17.4653C38.5778 18.6633 36.8752 19.2481 34.8498 19.2479C33.6642 19.2478 32.2286 19.0092 30.774 18.5705C30.3357 18.4384 29.9246 18.3045 29.8605 18.2731C29.7278 18.208 29.6705 18.0594 29.3513 16.9535C28.266 13.1935 28.6517 10.2618 30.5342 7.95986C30.6709 7.79272 31.7742 6.66069 32.986 5.44418L35.1892 3.23244L34.9346 3.17786C34.1335 3.00612 32.9899 2.93071 31.968 2.98221Z" fill="#010141"/>
</g>
<defs>
<clipPath id="clip0_2512_62">
<rect width="48" height="48" fill="white"/>
</clipPath>
</defs>
</svg>
