<svg width="48" height="48" viewBox="0 0 48 48" fill="none" xmlns="http://www.w3.org/2000/svg">
<path d="M47 24H31.6667M38.2389 16.3333C38.2389 17.1441 39.042 18.3573 39.8528 19.3751C40.8909 20.6944 42.1519 21.8218 43.5788 22.7063C44.6521 23.3618 45.9535 23.9904 47 23.9904M38.237 31.6667C38.237 30.8559 39.042 29.6427 39.8528 28.6249C40.891 27.3057 42.152 26.1783 43.5788 25.2938C44.6521 24.6383 45.9535 24.0096 47 24.0096M1 44.125H12.5C14.1361 44.125 15.7561 43.8028 17.2676 43.1767C18.7791 42.5506 20.1525 41.6329 21.3094 40.476C22.4662 39.3192 23.3839 37.9458 24.01 36.4343C24.6361 34.9228 24.9583 33.3027 24.9583 31.6667V19.2083H24C22.7292 19.2083 21.5104 19.7132 20.6118 20.6118C19.7132 21.5104 19.2083 22.7292 19.2083 24V31.6667V12.5C19.2083 11.2292 18.7035 10.0104 17.8049 9.11178C16.9063 8.21317 15.6875 7.70833 14.4167 7.70833H13.2858M1.95833 31.6667V7.70833H2.91667C4.1875 7.70833 5.40628 8.21317 6.30489 9.11178C7.2035 10.0104 7.70833 11.2292 7.70833 12.5V24V3.875H8.59C9.86083 3.875 11.0796 4.37983 11.9782 5.27845C12.8768 6.17706 13.3817 7.39584 13.3817 8.66667V24" stroke="#010141" stroke-width="2"/>
</svg>
