<svg width="48" height="48" viewBox="0 0 48 48" fill="none" xmlns="http://www.w3.org/2000/svg">
<path fill-rule="evenodd" clip-rule="evenodd" d="M20.928 4.83026C19.2615 4.88422 16.6777 5.0563 14.856 5.23457C10.1246 5.69772 4.9533 6.66535 1.73999 7.68876L0.959991 7.93721V24.0001V40.0629L1.73999 40.3114C2.76652 40.6383 3.7066 40.8877 5.11199 41.206C10.4307 42.4103 16.248 43.0863 22.14 43.1846L24 43.2156V42.2075V41.1995L22.116 41.1689C16.9668 41.0855 11.766 40.5294 6.98553 39.5512C5.56362 39.2602 3.7461 38.8276 3.13199 38.6338L2.97599 38.5846V31.3163V24.0481H24H45.024V26.9041V29.7601H46.032H47.04V18.8486V7.93721L46.26 7.68876C43.0569 6.66857 37.8976 5.70218 33.168 5.23654C30.0461 4.92914 28.2445 4.84313 24.6 4.82753C22.8576 4.82004 21.2052 4.82129 20.928 4.83026ZM20.856 6.84631C17.0668 6.97471 12.799 7.40681 9.26399 8.01996C7.08042 8.39868 4.18257 9.03492 3.13199 9.36631L2.97599 9.41551V11.8838V14.3521H24H45.024V11.8838V9.41551L44.868 9.36631C44.1771 9.14839 42.0562 8.65231 40.56 8.35874C36.8087 7.62257 33.4229 7.20329 29.04 6.93204C27.8894 6.86086 22.189 6.80114 20.856 6.84631ZM2.97599 19.2001V22.0321H24H45.024V19.2001V16.3681H24H2.97599V19.2001ZM29.7478 32.6282L29.0404 33.3368L32.0402 36.3363L35.04 39.3358L32.0398 42.3363L29.0395 45.3368L29.7481 46.0442L30.4567 46.7516L33.4562 43.7518L36.4557 40.7521L39.4562 43.7523L42.4567 46.7526L43.1641 46.0439L43.8716 45.3354L40.8718 42.3358L37.872 39.3364L40.8722 36.3358L43.8725 33.3353L43.1638 32.6279L42.4553 31.9205L39.4558 34.9203L36.4563 37.9201L33.4558 34.9198L30.4553 31.9196L29.7478 32.6282Z" fill="#010141"/>
</svg>
