<svg width="20" height="20" viewBox="0 0 20 20" fill="none" xmlns="http://www.w3.org/2000/svg">
<path d="M17.5349 13.735V19.184H2.46509V13.735C2.46509 13.735 5.36165 11.9965 9.99998 11.9965C14.6367 11.9965 17.5349 13.735 17.5349 13.735Z" stroke="#010141" stroke-width="1.5"/>
<path d="M5.94306 4.87298C5.94391 3.79658 6.37215 2.76457 7.13366 2.00382C7.89516 1.24306 8.9276 0.815828 10.004 0.81604C10.5366 0.81583 11.0641 0.920651 11.5562 1.12451C12.0482 1.32836 12.4953 1.62725 12.8717 2.00407C13.2482 2.38088 13.5466 2.82823 13.75 3.32051C13.9534 3.8128 14.0577 4.34035 14.0569 4.87298C14.0569 7.97958 10.0847 10.0903 10.0847 10.0903H9.91375C9.91375 10.0903 5.94226 7.97958 5.94226 4.87298H5.94306Z" stroke="#010141" stroke-width="1.5"/>
</svg>
