<svg xmlns="http://www.w3.org/2000/svg" width="49" height="48" fill="none" viewBox="0 0 49 48">
  <g clip-path="url(#a)">
    <path fill="#1A1C1E" d="M32.556 14.984a1.715 1.715 0 0 1-2.343.628l-2.457-1.42a1.715 1.715 0 1 1 1.715-2.97l2.457 1.42a1.715 1.715 0 0 1 .628 2.342Z"/>
    <path fill="#1A1C1E" fill-rule="evenodd" d="m18.556 43.285-13.07-7.546A4.552 4.552 0 0 1 3.82 29.52L19.427 2.49A4.552 4.552 0 0 1 25.645.822l17.202 9.932a4.552 4.552 0 0 1 1.667 6.219L29.322 43.285h18.845v3.43h-48v-3.43h18.389Zm1.866-2.883L7.202 32.77a1.123 1.123 0 0 1-.412-1.534L22.397 4.204c.31-.537.996-.721 1.533-.411l17.202 9.931c.537.31.721.997.411 1.534L25.936 42.289a1.12 1.12 0 0 1-.767.543l.552-.337-4.766-7.8 6.443-5.948-4.13-7.671-3.02 1.626 2.869 5.329-6.556 6.052 3.861 6.32Z" clip-rule="evenodd"/>
  </g>
  <defs>
    <clipPath id="a">
      <path fill="#fff" d="M.167 0h48v48h-48z"/>
    </clipPath>
  </defs>
</svg>
