<svg xmlns="http://www.w3.org/2000/svg" width="21" height="21" fill="none" viewBox="0 0 21 21">
  <path fill="#1A1C1E" fill-rule="evenodd" d="M8.09 1.182c-.746.08-1.51.392-2.09.855a5.44 5.44 0 0 0-.62.613 4.11 4.11 0 0 0-.879 2.114c-.014.132-.02 2.07-.02 6.06 0 6.29-.004 6.048.098 6.456.155.617.454 1.138.914 1.592.357.352.814.633 1.277.786.528.174.693.187 2.23.176.986-.007 1.262-.015 1.39-.04.744-.14 1.324-.444 1.84-.963.5-.502.81-1.111.931-1.834.039-.229.04-.345.034-5.54L13.19 6.15l-.053-.17c-.205-.65-.596-1.089-1.197-1.345-.33-.14-.462-.155-1.44-.155-.793 0-.88.003-1.067.041-.767.156-1.35.706-1.577 1.489l-.046.16v7.84l.053.11c.07.146.199.272.354.346.11.052.15.06.293.06a.529.529 0 0 0 .293-.06.751.751 0 0 0 .355-.346l.052-.11.01-3.81.01-3.81.052-.11a.714.714 0 0 1 .288-.307c.078-.042.098-.043.93-.043.832 0 .852 0 .93.043a.713.713 0 0 1 .288.307l.052.11.006 5c.004 3.409 0 5.071-.015 5.224-.048.5-.235.9-.582 1.241a1.941 1.941 0 0 1-.829.48l-.18.055H8.85c-1.315 0-1.32 0-1.478-.046a1.97 1.97 0 0 1-.913-.538 1.845 1.845 0 0 1-.473-.816l-.056-.18v-12l.048-.19c.112-.444.274-.77.55-1.1a2.645 2.645 0 0 1 1.577-.89c.276-.045 4.514-.045 4.79 0 .82.133 1.54.657 1.903 1.384.106.211.153.337.218.576l.054.2.01 5.91c.008 4.256.017 5.927.033 5.97.08.218.248.397.442.47.164.062.41.05.562-.028a.798.798 0 0 0 .34-.348l.053-.114.006-5.82c.004-4.109 0-5.885-.016-6.04a4.027 4.027 0 0 0-2.125-3.16 4.127 4.127 0 0 0-1.205-.414c-.217-.042-.256-.043-2.57-.047a102.3 102.3 0 0 0-2.51.013Z" clip-rule="evenodd"/>
</svg>
