<svg xmlns="http://www.w3.org/2000/svg" fill="none" viewBox="-1.5 -1.5 48 48" id="Tag--Streamline-Core.svg" height="48" width="48"><desc>Tag Streamline Icon: https://streamlinehq.com</desc><g id="tag--tags-bookmark-favorite"><path id="Vector 4010" stroke="#1a1c1e" stroke-linecap="round" stroke-linejoin="round" d="M27.045675 1.607142857142857H40.17857142857142c1.7752499999999998 0 3.214285714285714 1.4390839285714283 3.214285714285714 3.214285714285714v13.132896428571428c0 0.8524607142857142 -0.33878571428571425 1.6700464285714283 -0.9414642857142856 2.272821428571428L20.754996428571427 41.923607142857136c-1.255275 1.2551785714285713 -3.2904321428571426 1.2551785714285713 -4.545707142857142 0L3.076415357142857 28.790710714285712C1.8211564285714286 27.53543571428571 1.8211596428571426 25.50027857142857 3.076418571428571 24.24500357142857L24.77285357142857 2.5485846428571426C25.375628571428567 1.945790357142857 26.19321428571428 1.607142857142857 27.045675 1.607142857142857Z" stroke-width="3"></path><path id="Vector" stroke="#1a1c1e" stroke-linecap="round" stroke-linejoin="round" d="M32.94642857142857 13.660714285714285c-0.8875928571428571 0 -1.607142857142857 -0.7195499999999999 -1.607142857142857 -1.607142857142857s0.7195499999999999 -1.607142857142857 1.607142857142857 -1.607142857142857c0.8874642857142857 0 1.607142857142857 0.7195499999999999 1.607142857142857 1.607142857142857s-0.7196785714285713 1.607142857142857 -1.607142857142857 1.607142857142857Z" stroke-width="3"></path></g></svg>