<svg xmlns="http://www.w3.org/2000/svg" fill="none" viewBox="0 0 16 16" height="16" width="16"><g id="warning-circle--warning-alert-frame-exclamation-caution-circle"><path id="Subtract" fill="#ba1a1a" fill-rule="evenodd" d="M8 16c4.418285714285714 0 8 -3.5817142857142854 8 -8 0 -4.418274285714285 -3.5817142857142854 -8 -8 -8 -4.418274285714285 0 -8 3.581725714285714 -8 8 0 4.418285714285714 3.581725714285714 8 8 8ZM8 3.571428571428571c0.47338285714285716 0 0.8571428571428571 0.38375999999999993 0.8571428571428571 0.8571428571428571v3.714285714285714c0 0.47338285714285716 -0.38375999999999993 0.8571428571428571 -0.8571428571428571 0.8571428571428571s-0.8571428571428571 -0.38375999999999993 -0.8571428571428571 -0.8571428571428571v-3.714285714285714c0 -0.47338285714285716 0.38375999999999993 -0.8571428571428571 0.8571428571428571 -0.8571428571428571Zm1.1428571428571428 7.7142857142857135c0 0.6312 -0.51168 1.1428571428571428 -1.1428571428571428 1.1428571428571428s-1.1428571428571428 -0.5116571428571428 -1.1428571428571428 -1.1428571428571428c0 -0.6311771428571428 0.51168 -1.1428571428571428 1.1428571428571428 -1.1428571428571428s1.1428571428571428 0.51168 1.1428571428571428 1.1428571428571428Z" clip-rule="evenodd" stroke-width="1"></path></g></svg>