<svg xmlns="http://www.w3.org/2000/svg" width="49" height="48" fill="none" viewBox="0 0 49 48">
  <path fill="#1A1C1E" fill-rule="evenodd" d="M24.437 1.633c-.396.1-.636.28-1.358 1.015-2.5 2.55-5.86 6.477-8.14 9.52-4.698 6.265-7.19 11.254-7.67 15.36-.065.548-.066 2.087-.002 2.808A17.667 17.667 0 0 0 15.1 43.483c2.332 1.545 4.883 2.472 7.765 2.822.965.117 2.972.117 3.936 0 4.026-.489 7.547-2.164 10.371-4.936 2.839-2.785 4.617-6.349 5.159-10.337.105-.772.148-2.775.074-3.433-.503-4.467-3.407-10.024-8.88-16.991-2.117-2.695-4.852-5.83-6.955-7.975-.608-.62-.787-.774-1.021-.88-.317-.141-.814-.195-1.112-.12Zm-.256 4.859c-7.199 7.867-11.795 14.749-13.143 19.676-.337 1.232-.452 2.337-.367 3.52a14.347 14.347 0 0 0 1.252 4.984c1.945 4.258 5.91 7.31 10.51 8.092a14.248 14.248 0 0 0 11.243-2.884c.643-.509 1.83-1.706 2.323-2.344 1.659-2.144 2.628-4.518 2.95-7.224.1-.826.076-2.206-.048-2.92-.867-4.995-5.577-12.334-13.415-20.9-.345-.376-.638-.684-.653-.684-.014 0-.308.308-.652.684Z" clip-rule="evenodd"/>
</svg>
