<svg xmlns="http://www.w3.org/2000/svg" width="49" height="48" fill="none" viewBox="0 0 49 48">
  <path fill="#1A1C1E" fill-rule="evenodd" d="M33.5 1.653c-.747.147-1.242.418-1.8.982-.224.227-.471.532-.548.677-.077.145-2.224 4.022-4.771 8.616-2.547 4.594-4.714 8.525-4.815 8.736-.548 1.146-.484 2.408.178 3.526.441.744 1.185 1.299 2.108 1.572.271.08.856.086 10.006.099 10.521.014 10.14.022 10.794-.242.483-.195.826-.42 1.184-.779a3.645 3.645 0 0 0 1.061-2.784 3.362 3.362 0 0 0-.359-1.392c-.1-.211-2.204-4.091-4.675-8.623-2.47-4.53-4.55-8.351-4.62-8.49-.207-.41-.59-.9-.904-1.156-.325-.265-1.03-.626-1.39-.711-.378-.09-1.078-.105-1.449-.031Zm.558 3.514c-.032.07-2.165 3.926-4.74 8.569-3.114 5.616-4.676 8.477-4.665 8.548l.015.108h18.768l.015-.106c.01-.069-1.58-3.031-4.53-8.448a5990.03 5990.03 0 0 0-4.676-8.57l-.13-.228-.057.127ZM4.58 6.457c-.56.137-1.09.449-1.523.893-.35.36-.48.543-.663.93-.336.715-.314-.34-.3 14.304l.014 13.2.131.388a3.526 3.526 0 0 0 1.843 2.017c.6.265.417.259 7.842.259h6.855l-.898 2.244-.898 2.244-1.197.027c-1.294.029-1.427.052-1.806.314a1.711 1.711 0 0 0-.71 1.09c-.156.756.256 1.557.97 1.887l.3.138h19.92l.272-.128c.743-.348 1.156-1.132.999-1.897a1.711 1.711 0 0 0-.711-1.09c-.379-.262-.512-.285-1.806-.314l-1.197-.027-.898-2.244-.898-2.244h6.855c7.425 0 7.242.006 7.842-.26a3.52 3.52 0 0 0 1.842-2.016l.13-.388.017-2.544c.017-2.647.005-2.869-.186-3.245-.137-.27-.502-.613-.802-.754-.238-.111-.337-.129-.731-.129-.393 0-.492.017-.72.126a1.82 1.82 0 0 0-.835.858l-.149.312-.015 2.292-.015 2.292H5.54V9.793l8.868-.012 8.868-.013.266-.13c.946-.465 1.281-1.631.713-2.482-.2-.3-.368-.449-.715-.633l-.216-.115-9.24-.008c-7.629-.007-9.286.003-9.504.057Zm29.174 3.72c-.492.083-.98.447-1.212.907-.194.383-.229.825-.208 2.653.018 1.576.024 1.659.128 1.923.143.363.51.762.86.934.242.118.328.134.73.134.394 0 .493-.017.73-.128a1.88 1.88 0 0 0 .846-.847l.128-.273V11.4l-.118-.24c-.154-.314-.497-.678-.77-.816a2.241 2.241 0 0 0-.503-.164c-.31-.057-.289-.057-.611-.002Zm.058 7.084c-.545.096-.962.313-1.308.683-.61.652-.738 1.6-.325 2.406.162.318.598.75.918.91 1.616.806 3.45-.669 2.995-2.411a2.068 2.068 0 0 0-.926-1.268c-.383-.245-.976-.386-1.354-.32ZM22.44 38.556l-.869 2.172a149.213 149.213 0 0 0-.85 2.148c-.023.08.18.084 3.773.084 2.09 0 3.798-.016 3.798-.037 0-.02-.397-1.03-.883-2.244l-.883-2.207-2.022-.013-2.022-.012-.042.108Z" clip-rule="evenodd"/>
</svg>
