<svg width="100%" height="100%" viewBox="0 0 21 20" fill="none" xmlns="http://www.w3.org/2000/svg">
<path id="Vector" fill-rule="evenodd" clip-rule="evenodd" d="M15.9264 0.691585C15.6147 0.743925 15.3094 0.873045 15.02 1.07497C14.8413 1.19961 12.1777 3.86585 12.0513 4.04661C11.7482 4.47983 11.6065 5.00871 11.6602 5.50578C11.6881 5.76327 11.7239 5.90567 11.815 6.12005C11.9276 6.38515 12.0107 6.51291 12.2521 6.79199C12.416 6.98152 12.4659 7.11313 12.4564 7.33005C12.4512 7.44803 12.4366 7.51631 12.4008 7.59005C12.3622 7.66953 11.9291 8.11413 10.2911 9.75579C9.1426 10.9069 8.19424 11.8417 8.14926 11.867C8.0226 11.9383 7.89426 11.9664 7.7444 11.9557C7.56356 11.9428 7.46232 11.894 7.25998 11.7222C6.90516 11.421 6.61566 11.2744 6.20998 11.1906C6.02368 11.1521 5.65584 11.1467 5.44998 11.1795C5.13802 11.2292 4.7974 11.3784 4.5221 11.586C4.32424 11.7352 1.74328 14.2931 1.60406 14.4779C1.09674 15.1516 1.02142 16.0222 1.40598 16.7679C1.5603 17.0671 1.69306 17.2198 2.30858 17.806C2.88226 18.3524 3.2997 18.6482 3.8451 18.8948C5.20002 19.5075 6.75176 19.4822 8.06998 18.826C8.36664 18.6784 8.46532 18.6176 8.91998 18.3028C12.7824 15.6289 16.122 12.2959 18.7822 8.46005C19.1847 7.87971 19.2975 7.68329 19.4694 7.26361C19.7471 6.58555 19.8705 5.83999 19.8251 5.11469C19.7583 4.04623 19.4017 3.11593 18.7425 2.29005C18.5323 2.02668 17.7642 1.24129 17.5846 1.10603C17.103 0.743345 16.5063 0.594205 15.9264 0.691585ZM16.0665 2.12767C16.0205 2.14267 15.953 2.17365 15.9165 2.19649C15.8799 2.21935 15.2506 2.83925 14.5181 3.57404C13.013 5.08381 13.093 4.98709 13.091 5.30005C13.0897 5.51305 13.1392 5.62792 13.3192 5.83005C13.5836 6.12688 13.7695 6.47577 13.8528 6.83145C13.8813 6.95313 13.8897 7.06455 13.8886 7.31005C13.8874 7.58871 13.8805 7.65491 13.8354 7.82243C13.8069 7.92823 13.7513 8.08469 13.7119 8.17009C13.5369 8.54873 13.5681 8.51493 11.2915 10.7924C9.02896 13.0559 9.04612 13.04 8.69344 13.1999C8.35688 13.3525 7.9422 13.4222 7.59626 13.3844C7.11186 13.3313 6.73494 13.1642 6.34998 12.8319C6.09118 12.6085 5.88946 12.5446 5.64288 12.6077C5.42916 12.6625 5.5197 12.5803 3.92204 14.1689C2.54208 15.5411 2.60998 15.4577 2.60998 15.78C2.60998 16.0724 2.63208 16.1069 3.14474 16.6123C3.73486 17.1941 3.92828 17.3415 4.38998 17.5611C5.22594 17.9586 6.15476 18.0094 7.03998 17.706C7.39052 17.5859 7.59684 17.4724 8.11998 17.1123C11.011 15.1218 13.7253 12.6011 15.9723 9.82005C16.8404 8.74555 17.7914 7.42685 18.0165 6.98521C18.3914 6.24997 18.4941 5.40918 18.3085 4.59579C18.1948 4.09733 17.9491 3.59047 17.632 3.20005C17.516 3.05715 16.8292 2.34035 16.7166 2.24465C16.5718 2.12151 16.2581 2.06507 16.0665 2.12767Z" fill="currentColor"/>
</svg>
