<svg xmlns="http://www.w3.org/2000/svg" fill="none" viewBox="-1.5 -1.5 48 48" id="Desktop-Sync-Phone--Streamline-Core.svg" height="48" width="48"><desc>Desktop Sync Phone Streamline Icon: https://streamlinehq.com</desc><g id="desktop-sync-phone--phone-sync-upload-download-display-device-computer"><path id="Vector" stroke="#1a1c1e" stroke-linecap="round" stroke-linejoin="round" d="M21.607296428571427 6.428571428571428 3.214285714285714 6.428571428571428c-0.8875992857142856 0 -1.607142857142857 0.7195499999999999 -1.607142857142857 1.607142857142857v25.71428571428571c0 0.8874642857142857 0.7195435714285714 1.607142857142857 1.607142857142857 1.607142857142857h38.57142857142857c0.8874642857142857 0 1.607142857142857 -0.7196785714285713 1.607142857142857 -1.607142857142857V29.357774999999997" stroke-width="3"></path><path id="Vector_2" stroke="#1a1c1e" stroke-linecap="round" stroke-linejoin="round" d="m19.285714285714285 35.357142857142854 -3.214285714285714 8.035714285714285" stroke-width="3"></path><path id="Vector_3" stroke="#1a1c1e" stroke-linecap="round" stroke-linejoin="round" d="m25.71428571428571 35.357142857142854 3.214285714285714 8.035714285714285" stroke-width="3"></path><path id="Vector_4" stroke="#1a1c1e" stroke-linecap="round" stroke-linejoin="round" d="M12.857142857142856 43.39285714285714h19.285714285714285" stroke-width="3"></path><path id="Vector 1991" stroke="#1a1c1e" stroke-linecap="round" stroke-linejoin="round" d="M41.785714285714285 1.607142857142857H30.252021428571425c-0.8875928571428571 0 -1.607142857142857 0.7195435714285714 -1.607142857142857 1.607142857142857v17.678571428571427c0 0.8875928571428571 0.7195499999999999 1.607142857142857 1.607142857142857 1.607142857142857H41.785714285714285c0.8874642857142857 0 1.607142857142857 -0.7195499999999999 1.607142857142857 -1.607142857142857V3.214285714285714c0 -0.8875992857142856 -0.7196785714285713 -1.607142857142857 -1.607142857142857 -1.607142857142857Z" stroke-width="3"></path><path id="Vector 1992" stroke="#1a1c1e" stroke-linecap="round" stroke-linejoin="round" d="M34.4115 16.875h3.214285714285714" stroke-width="3"></path></g></svg>