<svg xmlns="http://www.w3.org/2000/svg" width="49" height="48" fill="none" viewBox="0 0 49 48">
  <path fill="#1A1C1E" fill-rule="evenodd" d="M11.028 5.207A4.524 4.524 0 0 0 8.54 6.51c-.756.764-1.178 1.66-1.317 2.802-.033.266-.05 3.348-.05 8.944v8.537l-2.205 5.146c-1.213 2.83-2.256 5.318-2.316 5.528-.095.326-.11.49-.11 1.126 0 .682.012.78.137 1.175.237.753.513 1.225 1.035 1.77.545.57 1.105.914 1.9 1.166l.431.137h36.912l.431-.137c.795-.252 1.356-.596 1.9-1.166.522-.545.798-1.017 1.035-1.77.125-.395.136-.493.137-1.175 0-.636-.015-.8-.11-1.126-.06-.21-1.108-2.705-2.327-5.544l-2.218-5.162-.024-8.832-.024-8.832-.132-.432c-.38-1.239-1.206-2.293-2.28-2.907-.413-.237-1.146-.499-1.596-.57-.502-.08-26.273-.061-26.72.02Zm.68 3.384c-.484.073-.768.274-.955.673l-.1.216-.014 7.956-.012 7.956h27.747l-.013-7.884-.013-7.884-.103-.223a1.676 1.676 0 0 0-.73-.73l-.223-.103-12.672-.006c-6.97-.004-12.78.01-12.912.03Zm-3.717 25.01c-2.195 5.124-2.146 4.99-1.954 5.36.093.181.331.387.503.435.168.047 35.753.047 35.92 0 .172-.048.41-.254.504-.434.192-.372.24-.237-1.954-5.36l-2.037-4.754H10.027l-2.036 4.754Z" clip-rule="evenodd"/>
</svg>
