<svg xmlns="http://www.w3.org/2000/svg" width="46" height="45" fill="none" viewBox="0 0 46 45">
  <path fill="#1A1C1E" fill-rule="evenodd" d="M30.2.133c-3.45.328-6.68 1.915-8.936 4.391-1.753 1.924-2.898 4.137-3.4 6.574-.203.99-.258 1.592-.258 2.858 0 1.306.053 1.843.287 2.904.124.561.145.64.344 1.261l.128.397-8.235 8.243c-4.53 4.534-8.336 8.376-8.459 8.54-.671.89-.993 1.86-.994 2.995-.001 1.115.31 2.048.984 2.948.262.35 2.1 2.155 2.615 2.568a4.89 4.89 0 0 0 4.458.883 5.403 5.403 0 0 0 1.576-.799c.178-.134 4.07-3.95 8.649-8.48 4.58-4.53 8.35-8.232 8.38-8.228.029.004.388.094.797.198 2.904.742 6.124.478 8.896-.73 2.279-.992 4.44-2.768 5.845-4.804 1.22-1.768 2.07-3.962 2.351-6.072.2-1.5.099-3.66-.225-4.8a4.196 4.196 0 0 0-1.553-2.223c-.463-.337-.752-.43-1.25-.406-.711.035-.525-.123-4.32 3.663-3.772 3.764-3.604 3.621-4.248 3.621-.545 0-.67-.083-2.172-1.43a74.8 74.8 0 0 1-1.414-1.288c-.298-.335-.386-1.031-.188-1.481.088-.2.674-.81 3.457-3.6 1.843-1.848 3.397-3.437 3.453-3.532.158-.266.264-.744.23-1.037-.09-.76-.777-1.755-1.59-2.303-.637-.43-1.081-.585-2.112-.737C32.523.113 30.922.065 30.2.133Zm.336 3.434c-.066.011-.314.045-.552.074-1.25.153-2.854.721-4.002 1.417-.923.56-1.945 1.459-2.64 2.322-1.535 1.907-2.31 4.104-2.31 6.552 0 1.468.258 2.71.862 4.152.258.615.27 1.12.04 1.628-.08.174-1.933 2.055-8.848 8.98-4.812 4.818-8.783 8.83-8.825 8.914-.232.465-.195 1.079.09 1.48.086.12.597.642 1.135 1.158 1.142 1.096 1.292 1.192 1.866 1.192.297 0 .407-.023.624-.132.22-.11 1.755-1.607 9.048-8.822 9.814-9.71 9.025-8.981 9.767-9.014.332-.014.417.004 1.05.229.38.134.859.287 1.065.34 2.445.624 5.035.342 7.27-.792a10.37 10.37 0 0 0 5.394-6.703c.262-1.012.387-2.234.32-3.133l-.035-.47-2.528 2.516c-2.72 2.708-2.95 2.907-3.769 3.248-.728.303-1.024.358-1.926.358-.902 0-1.197-.055-1.926-.359-.6-.25-1.072-.609-2.635-2.01-1.6-1.433-1.915-1.783-2.278-2.53a6.832 6.832 0 0 1-.322-.817c-.119-.39-.129-.487-.132-1.309-.002-.79.01-.93.108-1.272a6.32 6.32 0 0 1 .76-1.6c.13-.186 1.31-1.409 2.818-2.923 1.427-1.431 2.58-2.616 2.563-2.634-.036-.035-1.87-.071-2.052-.04Z" clip-rule="evenodd"/>
</svg>
