<svg xmlns="http://www.w3.org/2000/svg" width="49" height="48" fill="none" viewBox="0 0 49 48">
  <g clip-path="url(#a)">
    <path fill="#1A1C1E" fill-rule="evenodd" d="M23.667 29.364c0-1.636 1.278-3.095 3.015-3.095h16.663c1.737 0 3.015 1.46 3.015 3.095v11.96c0 1.635-1.278 3.094-3.015 3.094H26.682c-1.737 0-3.015-1.459-3.015-3.095v-11.96Zm3.03-.095a.135.135 0 0 0-.03.095v11.96a.135.135 0 0 0 .031.094h16.63a.135.135 0 0 0 .032-.095v-11.96a.135.135 0 0 0-.031-.093H26.698Z" clip-rule="evenodd"/>
    <path fill="#1A1C1E" fill-rule="evenodd" d="M23.667 33.071a1.5 1.5 0 0 1 1.5-1.5H44.86a1.5 1.5 0 0 1 0 3H25.167a1.5 1.5 0 0 1-1.5-1.5ZM37.3 38.373a1.5 1.5 0 0 1 1.5-1.5h2.273a1.5 1.5 0 1 1 0 3H38.8a1.5 1.5 0 0 1-1.5-1.5ZM8.196 13.5a9 9 0 1 1 18 0 9 9 0 0 1-18 0Zm9-6a6 6 0 1 0 0 12 6 6 0 0 0 0-12Z" clip-rule="evenodd"/>
    <path fill="#1A1C1E" fill-rule="evenodd" d="M24.667 12.5h-15v-3h15v3Z" clip-rule="evenodd"/>
    <path fill="#1A1C1E" fill-rule="evenodd" d="m17.167 12.448 7.886 2.103-.773 2.898-7.113-1.897-7.114 1.897-.773-2.898 7.887-2.103ZM.782 35.423c2.673-6.412 9-10.923 16.385-10.923.927 0 1.838.071 2.729.209a1.5 1.5 0 0 1-.458 2.965 14.87 14.87 0 0 0-2.271-.174c-5.3 0-9.95 2.797-12.549 7h15.049a1.5 1.5 0 0 1 0 3h-17.5a1.5 1.5 0 0 1-1.385-2.077Z" clip-rule="evenodd"/>
  </g>
  <defs>
    <clipPath id="a">
      <path fill="#fff" d="M.167 0h48v48h-48z"/>
    </clipPath>
  </defs>
</svg>
