<svg width="100%" height="100%" viewBox="0 0 21 20" fill="none" xmlns="http://www.w3.org/2000/svg">
<path id="Vector" fill-rule="evenodd" clip-rule="evenodd" d="M10.0866 1.34033C8.97348 1.44863 7.95714 1.92479 7.18162 2.70133C6.44604 3.43785 5.98208 4.38309 5.83736 5.43995C5.82304 5.54445 5.81134 5.80545 5.81134 6.01995C5.81134 6.23445 5.82304 6.49545 5.83736 6.59995C5.98204 7.65661 6.44754 8.60555 7.18098 9.33897C7.91554 10.0735 8.8617 10.5377 9.92 10.6826C10.1648 10.7161 10.8352 10.7161 11.08 10.6826C12.4653 10.4929 13.6454 9.75969 14.416 8.60995C14.6996 8.18673 14.9703 7.55677 15.0778 7.06995C15.1624 6.68639 15.1879 6.44359 15.1879 6.01995C15.1879 5.25451 15.0412 4.61813 14.7107 3.94995C14.0172 2.54795 12.719 1.60507 11.16 1.37111C10.9026 1.33247 10.3346 1.31619 10.0866 1.34033ZM10.1335 2.78107C9.03374 2.90889 8.07108 3.58473 7.5832 4.57153C6.92454 5.90377 7.24002 7.49669 8.35572 8.47211C9.58492 9.54675 11.4151 9.54675 12.6443 8.47211C13.9944 7.29173 14.1355 5.23391 12.9589 3.88391C12.2556 3.07693 11.1846 2.65891 10.1335 2.78107ZM9.8 11.9616C8.4216 12.0664 7.05816 12.4828 5.87948 13.1588C4.23978 14.0992 2.9115 15.5173 2.09828 17.1956C1.86318 17.6808 1.83208 17.7699 1.83144 17.9599C1.83096 18.1024 1.83942 18.1483 1.88364 18.2434C1.95736 18.402 2.08032 18.5277 2.23712 18.6049L2.36916 18.6699L10.4096 18.6756C16.2096 18.6797 18.4862 18.6751 18.58 18.6591C18.8208 18.6182 19.0115 18.4702 19.1157 18.2434C19.1589 18.1495 19.1679 18.1006 19.168 17.9599C19.1681 17.8094 19.1599 17.7705 19.0962 17.6199C18.5384 16.3032 17.5973 15.0328 16.51 14.1292C14.9541 12.8361 13.1618 12.1095 11.16 11.9602C10.8516 11.9372 10.1111 11.9379 9.8 11.9616ZM9.69382 13.4113C8.31812 13.5544 6.96988 14.0691 5.86416 14.8734C5.04968 15.4659 4.31598 16.2493 3.80238 17.0749L3.69972 17.2399H10.5H17.3003L17.1972 17.0749C15.9101 15.0152 13.712 13.6545 11.2776 13.4103C10.9049 13.373 10.0577 13.3735 9.69382 13.4113Z" fill="currentColor"/>
</svg>
