<svg width="100%" height="100%" viewBox="0 0 21 20" fill="none" xmlns="http://www.w3.org/2000/svg">
<g id="icons">
<path id="Vector" fill-rule="evenodd" clip-rule="evenodd" d="M15.4508 1.34218C15.1148 1.38298 14.7215 1.55258 14.4413 1.77748C14.373 1.83228 12.6371 3.54542 10.5836 5.58446C4.81997 11.3077 5.27115 10.8545 5.21233 10.98C5.13893 11.1365 4.47167 15.1587 4.48541 15.3619C4.50217 15.6099 4.65367 15.8352 4.88115 15.9505C5.09257 16.0576 5.04783 16.0631 7.32649 15.6532C9.04899 15.3434 9.40065 15.2746 9.49235 15.2298C9.58499 15.1844 10.2932 14.4862 14.1026 10.684C16.5781 8.2133 18.6562 6.12618 18.7208 6.04598C19.3076 5.31654 19.3247 4.29004 18.7624 3.54678C18.6971 3.46054 18.2807 3.02938 17.8369 2.58866C16.9778 1.7354 16.8561 1.63308 16.5401 1.49862C16.2122 1.35908 15.7995 1.29982 15.4508 1.34218ZM15.4926 2.80924C15.3533 2.86652 15.8712 2.3599 10.4866 7.70646C6.61389 11.5518 6.52181 11.645 6.50881 11.7317C6.50149 11.7805 6.39881 12.403 6.28065 13.1152C6.16247 13.8273 6.06739 14.4121 6.06939 14.4147C6.07137 14.4174 6.69211 14.3083 7.44883 14.1725L8.82467 13.9254L13.2318 9.51826C16.9365 5.81362 17.6463 5.0951 17.6846 5.01056C17.7492 4.86796 17.7482 4.6465 17.6825 4.51722C17.6494 4.4523 17.3973 4.18728 16.8427 3.63454C16.1036 2.89796 16.0423 2.84176 15.9344 2.8023C15.7815 2.74642 15.64 2.74864 15.4926 2.80924ZM2.35869 17.2673C2.00029 17.364 1.77475 17.7196 1.84081 18.0839C1.87005 18.2451 1.92189 18.3437 2.03915 18.4609C2.15507 18.5769 2.25367 18.6294 2.40941 18.6582C2.56797 18.6875 18.4259 18.6892 18.5802 18.66C18.8022 18.6179 19.003 18.4628 19.0984 18.26C19.1433 18.1644 19.1501 18.1237 19.1499 17.95C19.1497 17.7697 19.1441 17.7394 19.0935 17.6429C19.0295 17.5209 18.8882 17.375 18.7821 17.3213C18.7425 17.3013 18.6624 17.2748 18.6041 17.2624C18.4436 17.2284 2.48525 17.2332 2.35869 17.2673Z" fill="currentColor"/>
</g>
</svg>
