<svg xmlns="http://www.w3.org/2000/svg" width="49" height="48" fill="none" viewBox="0 0 49 48">
  <path fill="#1A1C1E" fill-rule="evenodd" d="m32.12 3.29-1.816 3.349c1.824.939 3.281 2.246 4.372 3.925a9.917 9.917 0 0 1 1.637 5.51h-23.65a9.91 9.91 0 0 1 1.636-5.51c1.091-1.68 2.557-2.986 4.398-3.925l-1.816-3.35c-.12-.22-.077-.39.128-.51.221-.103.392-.051.511.153l1.841 3.375a12.567 12.567 0 0 1 5.14-1.075c1.806 0 3.52.36 5.139 1.075l1.84-3.375c.12-.204.29-.257.512-.153.204.12.247.29.128.51Zm-13.015 8.514a.958.958 0 0 0 .703-.294.963.963 0 0 0 .295-.703.961.961 0 0 0-.295-.703.96.96 0 0 0-.703-.294.918.918 0 0 0-.69.294.982.982 0 0 0-.281.703.98.98 0 0 0 .28.703.915.915 0 0 0 .691.295Zm10.79 0a.917.917 0 0 0 .69-.294.98.98 0 0 0 .281-.703.982.982 0 0 0-.28-.703.919.919 0 0 0-.69-.294.96.96 0 0 0-.704.294.959.959 0 0 0-.295.703c0 .273.098.507.295.703.195.197.43.295.703.295Z" clip-rule="evenodd"/>
  <path fill="#1A1C1E" d="M7.267 17.275a2.54 2.54 0 0 1 1.866-.767c.716 0 1.33.256 1.842.767a2.51 2.51 0 0 1 .767 1.841V30.11c0 .734-.252 1.356-.755 1.867-.503.512-1.121.767-1.854.767a2.54 2.54 0 0 1-1.866-.767A2.54 2.54 0 0 1 6.5 30.11V19.116c0-.716.256-1.33.767-1.84Zm5.497 16.747c0 .785.273 1.45.818 1.995.546.545 1.21.817 1.994.817h1.892l.026 5.805c0 .733.256 1.356.767 1.867a2.51 2.51 0 0 0 1.841.767 2.54 2.54 0 0 0 1.866-.767 2.541 2.541 0 0 0 .767-1.867v-5.804h3.529v5.804c0 .733.255 1.356.767 1.867a2.54 2.54 0 0 0 1.866.767 2.54 2.54 0 0 0 1.866-.767 2.54 2.54 0 0 0 .767-1.867v-5.804h1.918c.767 0 1.423-.273 1.969-.818.545-.545.818-1.21.818-1.994v-17.03h-23.47v17.03Zm25.262-16.759a2.534 2.534 0 0 1 1.84-.755c.733 0 1.356.252 1.867.755.511.503.767 1.121.767 1.853V30.11a2.54 2.54 0 0 1-.767 1.867 2.54 2.54 0 0 1-1.866.767c-.716 0-1.33-.255-1.841-.767a2.54 2.54 0 0 1-.767-1.867V19.116c0-.732.256-1.35.767-1.853Z"/>
</svg>
