<svg xmlns="http://www.w3.org/2000/svg" width="21" height="21" fill="none" viewBox="0 0 21 21">
  <path fill="#1A1C1E" fill-rule="evenodd" d="M5.707 1.84a.747.747 0 0 0-.5.405l-.057.125-.006.724-.006.723-.814.008c-.693.007-.832.014-.934.043-.799.229-1.33.774-1.525 1.563-.031.13-.034.543-.04 5.93-.005 4.177 0 5.844.016 5.987a2.033 2.033 0 0 0 1.799 1.811c.235.03 13.485.03 13.72 0a2.037 2.037 0 0 0 1.8-1.815c.016-.138.02-1.869.015-5.984-.006-5.392-.008-5.8-.04-5.93-.17-.688-.659-1.254-1.284-1.484-.301-.111-.308-.112-1.175-.12l-.814-.009-.006-.723-.006-.724-.057-.125a.73.73 0 0 0-.527-.407.81.81 0 0 0-.453.066.848.848 0 0 0-.335.37c-.045.112-.047.14-.054.831l-.007.715H6.583l-.007-.715c-.007-.69-.009-.719-.053-.83a.849.849 0 0 0-.334-.37 1.04 1.04 0 0 0-.358-.083 1.19 1.19 0 0 0-.124.019ZM3.74 5.269a.829.829 0 0 0-.17.057.76.76 0 0 0-.253.275l-.047.09-.005 1.385-.006 1.385h14.482l-.005-1.385-.006-1.385-.047-.09a.728.728 0 0 0-.264-.28c-.128-.066-.29-.08-.931-.08h-.626l-.006.725-.006.725-.056.122a.763.763 0 0 1-.364.361.55.55 0 0 1-.29.055.633.633 0 0 1-.498-.204c-.205-.205-.222-.29-.222-1.138V5.24H6.58v.635c0 .666-.015.838-.083.97a.875.875 0 0 1-.352.33.547.547 0 0 1-.285.053.55.55 0 0 1-.29-.055.764.764 0 0 1-.363-.36L5.15 6.69l-.006-.725-.006-.725-.644.002c-.427 0-.68.01-.754.026Zm-.48 8.301v3.67l.042.111c.056.149.2.293.348.348l.112.042h13.477l.111-.042a.639.639 0 0 0 .348-.348l.042-.111V9.9H3.26v3.67Z" clip-rule="evenodd"/>
</svg>
