<svg width="100%" height="100%" viewBox="0 0 19 18" fill="none" xmlns="http://www.w3.org/2000/svg">
<path fill-rule="evenodd" clip-rule="evenodd" d="M0.163198 5.01137C0.16313 5.01706 0.16313 5.02275 0.163198 5.02844V14.9692C0.163198 16.0965 1.07702 17.0103 2.20427 17.0103H16.7956C17.9229 17.0103 18.8367 16.0965 18.8367 14.9692V5.03051C18.8368 5.02344 18.8368 5.01637 18.8367 5.0093V3.03082C18.8367 1.90356 17.9229 0.989746 16.7956 0.989746H2.20427C1.07701 0.989746 0.163198 1.90357 0.163198 3.03082V5.01137ZM1.59236 3.03082C1.59236 2.69288 1.86633 2.41891 2.20427 2.41891H16.7956C17.1336 2.41891 17.4075 2.69286 17.4075 3.03082V4.64614L9.84827 9.87948C9.63874 10.0245 9.36122 10.0246 9.15167 9.87948L1.59236 4.64612V3.03082ZM17.4075 6.38438V14.9692C17.4075 15.3072 17.1336 15.5811 16.7956 15.5811H2.20427C1.86632 15.5811 1.59236 15.3072 1.59236 14.9692V6.38436L8.33817 11.0545C9.03712 11.5384 9.96281 11.5384 10.6618 11.0545L17.4075 6.38438Z" fill="currentColor"/>
</svg>
