<svg xmlns="http://www.w3.org/2000/svg" fill="none" viewBox="-1.5 -1.5 48 48" id="Steps-Number--Streamline-Core.svg" height="48" width="48"><desc>Steps Number Streamline Icon: https://streamlinehq.com</desc><g id="steps-number--interface-number-internet-menu-progress"><path id="Vector" stroke="#1a1c1e" stroke-linecap="round" stroke-linejoin="round" d="M1.607142857142857 34.55357142857142h41.785714285714285" stroke-width="3"></path><path id="Vector_2" stroke="#1a1c1e" stroke-linecap="round" stroke-linejoin="round" d="m34.55357142857142 43.39285714285714 8.839285714285714 -8.839285714285714L34.55357142857142 25.71428571428571" stroke-width="3"></path><path id="Vector 2" stroke="#1a1c1e" stroke-linecap="round" stroke-linejoin="round" d="m7.0716535714285715 15.322435714285714 0 -13.715267142857142c0 1.8936707142857143 -1.5351428571428571 3.4287814285714284 -3.4288071428571425 3.4287814285714284l-1.142945357142857 0" stroke-width="3"></path><path id="Vector 1" stroke="#1a1c1e" stroke-linecap="round" stroke-linejoin="round" d="M11.643139285714286 15.322435714285714H2.499627857142857" stroke-width="3"></path><path id="Vector 3" stroke="#1a1c1e" stroke-linecap="round" stroke-linejoin="round" d="M27.071646428571427 15.322435714285714H17.92812857142857v-1.9482749999999995c0 -1.3622785714285712 0.8064321428571428 -2.595310714285714 2.054475 -3.141353571428571l5.087860714285713 -2.2259249999999997c1.215642857142857 -0.5318678571428571 2.0011821428571426 -1.732917857142857 2.0011821428571426 -3.0598392857142853 0 -1.8445660714285712 -1.4953178571428571 -3.3398742857142856 -3.3398678571428566 -3.3398742857142856h-2.3748428571428573c-1.4929392857142856 0 -2.763 0.9541349999999998 -3.2337 2.285877857142857" stroke-width="3"></path><path id="Vector_3" stroke="#1a1c1e" stroke-linecap="round" stroke-linejoin="round" d="M39.16060714285714 7.893321428571428c1.8935357142857139 0 3.4286785714285712 1.5351428571428571 3.4286785714285712 3.4288392857142855l0 0.5715c0 1.8936642857142856 -1.5351428571428571 3.4288071428571425 -3.4286785714285712 3.4288071428571425l-2.286 0c-1.4930357142857142 0 -2.763 -0.9541285714285713 -3.233571428571428 -2.285903571428571m0.4946785714285714 -9.14355c0.37317857142857136 -1.3192135714285713 1.5859285714285714 -2.2858424999999998 3.0246428571428567 -2.285855357142857L38.87485714285714 1.607142857142857c1.7360357142857141 -0.00001607142857142857 3.1432499999999997 1.407195 3.1432499999999997 3.1430892857142854 0 1.7358749999999998 -1.4072142857142858 3.1430892857142854 -3.1432499999999997 3.1430892857142854l-0.28575 0" stroke-width="3"></path></g></svg>