<svg xmlns="http://www.w3.org/2000/svg" width="49" height="48" fill="none" viewBox="0 0 49 48">
  <path fill="#1A1C1E" fill-rule="evenodd" d="M12.531 1.66a5.04 5.04 0 0 0-2.181.966c-.841.642-1.5 1.665-1.769 2.75-.086.348-.09.976-.09 18.624s.004 18.276.09 18.624a4.988 4.988 0 0 0 3.559 3.636l.48.132h23.76l.48-.132a4.988 4.988 0 0 0 3.559-3.636c.086-.348.089-.976.089-18.624s-.003-18.276-.09-18.624A4.988 4.988 0 0 0 36.86 1.74l-.48-.132L24.644 1.6c-9.972-.007-11.793.002-12.113.06Zm.316 3.46c-.29.103-.694.489-.833.795l-.114.253v35.664l.114.253c.07.155.214.344.37.487.467.426-.736.388 12.116.388s11.648.038 12.115-.388c.157-.143.3-.332.37-.487l.115-.253V6.168l-.114-.253a1.65 1.65 0 0 0-.37-.487c-.468-.427.74-.388-12.137-.384-10.062.003-11.451.012-11.632.076Zm9.796 29.92c-.959.14-1.627 1.123-1.408 2.07.119.513.483.964.96 1.19l.265.124h4.08l.264-.124c.297-.14.623-.445.79-.737.367-.642.243-1.495-.295-2.032a1.648 1.648 0 0 0-.985-.493c-.359-.052-3.313-.05-3.671.002Z" clip-rule="evenodd"/>
</svg>
