<svg xmlns="http://www.w3.org/2000/svg" fill="none" viewBox="-1.5 -1.5 48 48" id="User-Full-Body-Question-Query--Streamline-Core.svg" height="48" width="48"><desc>User Full Body Question Query Streamline Icon: https://streamlinehq.com</desc><g id="user-full-body-question-query--actions-question-geometric-human-person-single-user"><path id="Vector" stroke="#1a1c1e" stroke-linecap="round" stroke-linejoin="round" d="M12.857142857142856 12.857142857142856c3.1066071428571425 0 5.624999999999999 -2.5183928571428567 5.624999999999999 -5.624999999999999S15.963749999999997 1.607142857142857 12.857142857142856 1.607142857142857s-5.624999999999999 2.5183928571428567 -5.624999999999999 5.624999999999999S9.750535714285714 12.857142857142856 12.857142857142856 12.857142857142856Z" stroke-width="3"></path><path id="Vector 3812" stroke="#1a1c1e" stroke-linecap="round" stroke-linejoin="round" d="M1.607142857142857 29.732142857142854H6.428571428571428l1.607142857142857 13.660714285714285h9.642857142857142L19.285714285714285 29.732142857142854h4.821428571428571V24.107142857142854C24.107142857142854 17.89392857142857 19.07035714285714 12.857142857142856 12.857142857142856 12.857142857142856S1.607142857142857 17.89392857142857 1.607142857142857 24.107142857142854v5.624999999999999Z" stroke-width="3"></path><path id="Vector_2" stroke="#1a1c1e" stroke-linecap="round" stroke-linejoin="round" d="M30.53571428571428 26.249464285714282c0 -1.271442857142857 0.37703571428571425 -2.514342857142857 1.0834071428571428 -3.5715214285714283 0.7063071428571428 -1.0571464285714285 1.7104499999999996 -1.8811285714285713 2.88495 -2.3676749999999998 1.1748214285714285 -0.48657857142857136 2.467285714285714 -0.6138964285714285 3.714428571428571 -0.36584999999999995 1.2468214285714285 0.24804642857142856 2.3923928571428568 0.8603357142857142 3.2914285714285714 1.7593714285714284 0.8990357142857142 0.8990678571428571 1.5113571428571426 2.044510714285714 1.7594999999999998 3.2915249999999996 0.24782142857142855 1.2470464285714284 0.12053571428571427 2.5396071428571427 -0.36578571428571427 3.714267857142857 -0.4866428571428571 1.1746607142857142 -1.3107857142857142 2.1786749999999997 -2.3679642857142857 2.885046428571428 -1.0571785714285713 0.7063714285714285 -2.2998214285714282 1.0834071428571428 -3.5713928571428566 1.0834071428571428v4.285607142857142" stroke-width="3"></path><g id="Group 2677"><path id="Vector_3" stroke="#1a1c1e" stroke-linecap="round" stroke-linejoin="round" d="M36.96428571428571 43.39285714285714c-0.4438928571428571 0 -0.8035714285714285 -0.3596785714285714 -0.8035714285714285 -0.8035714285714285s0.3596785714285714 -0.8035714285714285 0.8035714285714285 -0.8035714285714285" stroke-width="3"></path><path id="Vector_4" stroke="#1a1c1e" stroke-linecap="round" stroke-linejoin="round" d="M36.96428571428571 43.39285714285714c0.4438928571428571 0 0.8035714285714285 -0.3596785714285714 0.8035714285714285 -0.8035714285714285s-0.3596785714285714 -0.8035714285714285 -0.8035714285714285 -0.8035714285714285" stroke-width="3"></path></g></g></svg>