<svg xmlns="http://www.w3.org/2000/svg" width="21" height="21" fill="none" viewBox="0 0 21 21">
  <path fill="#1A1C1E" fill-rule="evenodd" d="M12.14 1.191a1.287 1.287 0 0 0-.856.672c-.1.21-.132.343-.13.557 0 .345.07.508.413.97.139.187.252.346.253.354 0 .008-.03.03-.065.048-.118.06-.562.353-.785.518a6.762 6.762 0 0 0-.86.741c-.91.919-1.432 1.999-1.6 3.313a7.515 7.515 0 0 0-.032 1.276c.16 1.534 1.152 2.632 2.882 3.19.846.272 1.782.385 3.016.364.672-.012.87-.026 1.354-.096 2.253-.325 3.697-1.426 4.029-3.07.167-.829.062-2-.264-2.927-.383-1.093-1.098-2.035-2.136-2.813a9.731 9.731 0 0 0-.754-.51l-.125-.073.225-.287c.292-.373.3-.385.361-.54.283-.712-.161-1.53-.916-1.688-.202-.042-3.812-.041-4.01.001Zm.64 1.419c0 .005.162.228.36.495.199.267.384.533.412.591a.67.67 0 0 1 .028.504c-.08.236-.188.343-.51.505-1.315.66-2.24 1.479-2.7 2.39-.319.63-.47 1.304-.47 2.092 0 .353.027.548.107.785.246.722.895 1.236 1.943 1.538 1.203.347 3.202.347 4.398 0 .917-.266 1.554-.714 1.837-1.292.156-.32.215-.603.215-1.031 0-1.085-.322-2.06-.935-2.828-.506-.637-1.241-1.195-2.26-1.719-.275-.141-.375-.231-.462-.417a.801.801 0 0 1-.007-.57c.035-.076.588-.817.76-1.018.029-.033-.037-.035-1.343-.035-.755 0-1.373.004-1.373.01ZM1.742 10.462c-.456.078-.717.616-.5 1.03a.84.84 0 0 0 .406.355c.043.015.673.025 2.062.033l2 .01.19.053c.235.066.42.149.607.271.174.115 1.837 1.763 1.93 1.912a.69.69 0 0 1-.297.972c-.094.045-.137.052-.3.052-.289 0-.291-.002-.98-.684-.688-.68-.708-.694-1-.694a.547.547 0 0 0-.292.055.766.766 0 0 0-.362.363.537.537 0 0 0-.056.29c0 .298.01.312.747 1.044.661.657.772.749 1.075.889.084.039.24.094.346.122.166.044.235.052.512.053.241.002.36-.007.48-.034.151-.034.327-.036 3.19-.03 3.297.008 3.062 0 3.34.116.523.22.893.756.904 1.309.004.23-.061.35-.229.42-.066.027-.56.03-4.48.03-2.975 0-4.447-.006-4.535-.02a2.131 2.131 0 0 1-.64-.23c-.108-.063-.702-.544-1.873-1.52-.952-.793-1.755-1.447-1.805-1.47a.73.73 0 0 0-.852.19.611.611 0 0 0-.157.46c.001.21.04.318.16.453.117.13 3.43 2.885 3.615 3.005.504.329.974.496 1.552.553.165.016 1.499.02 4.69.016l4.46-.006.152-.043c.356-.102.64-.269.87-.51.34-.36.484-.706.502-1.207.046-1.253-.768-2.413-1.984-2.826a2.772 2.772 0 0 0-.75-.144c-.137-.01-1.219-.02-2.403-.02H9.884l.028-.109a2.47 2.47 0 0 0 .044-.686 2.127 2.127 0 0 0-.415-1.08c-.138-.181-1.873-1.914-2.055-2.052-.365-.276-.8-.49-1.213-.595-.419-.107-.36-.104-2.463-.11-1.139-.003-2.005.003-2.068.014Z" clip-rule="evenodd"/>
</svg>
