<svg xmlns="http://www.w3.org/2000/svg" width="49" height="48" fill="none" viewBox="0 0 49 48">
  <path fill="#1A1C1E" fill-rule="evenodd" d="M10.964 1.657a4.954 4.954 0 0 0-3.28 2.122A5.175 5.175 0 0 0 7.04 5.17l-.132.422v36.816l.132.422c.55 1.753 1.78 2.954 3.516 3.43l.48.132h26.928l.48-.132c1.735-.476 2.966-1.677 3.516-3.43l.132-.422V5.592l-.132-.422c-.176-.558-.368-.975-.641-1.386a4.992 4.992 0 0 0-3.412-2.149c-.551-.082-26.47-.061-26.943.022Zm.262 3.481c-.313.12-.626.424-.784.762l-.126.268v35.664l.126.268c.161.344.473.643.798.764.253.095.386.096 13.26.096s13.007-.001 13.26-.096c.325-.121.637-.42.798-.764l.126-.268V6.168l-.126-.268c-.161-.344-.473-.643-.798-.764-.253-.095-.383-.096-13.274-.094-12.764.003-13.023.005-13.26.096Zm17.735 18.765c-.504.089-1.01.482-1.239.961-.11.23-.126.324-.126.744 0 .432.014.505.135.736.18.343.506.66.84.816l.273.128h4.034l.32-.157c.394-.194.713-.535.856-.913.127-.335.14-.893.027-1.203-.163-.447-.585-.87-1.047-1.05-.178-.07-.455-.082-2.03-.09-1.003-.007-1.923.006-2.043.028Z" clip-rule="evenodd"/>
</svg>
